# xmcd CD database file generated by OrangeCD 5.0
#
# Track frame offsets:
#	150
#	17607
#	34555
#	62183
#	94150
#	115574
#	153340
#	170302
#	190728
#	203204
#	215991
#	230339
#
# Disc length: 3301 seconds
#
# Revision: 1
# Processed by: cddbd v1.4PL0 Copyright (c) Steve Scherf et al.
# Submitted via: OrangeCD 5.0
#
DISCID=990ce30c
DTITLE=Duke Robillard - Living With The Blues
DYEAR=2002
DGENRE=Blues
TTITLE0=Buy Me A Dog
TTITLE1=If Walls Could Talk
TTITLE2=Use What You Got
TTITLE3=Goodtime Charlie
TTITLE4=Painful Memory
TTITLE5=Stratisfied
TTITLE6=Hard Road
TTITLE7=I Live The Life I Love
TTITLE8=I'm Mad About It
TTITLE9=Sleepin'On It
TTITLE10=Living With The Blues
TTITLE11=Long Gone Baby
EXTD=
EXTT0=
EXTT1=
EXTT2=
EXTT3=
EXTT4=
EXTT5=
EXTT6=
EXTT7=
EXTT8=
EXTT9=
EXTT10=
EXTT11=
PLAYORDER=
